<svg id="Artwork" xmlns="http://www.w3.org/2000/svg" viewBox="0 0 545 126"><defs><style>.cls-1{fill:#333;}.cls-2{fill:#b73c26;}.cls-3{fill:#631b1b;}.cls-4{fill:#a53123;}.cls-5{fill:#f46821;}.cls-6{fill:#cc4b27;}.cls-7{fill:#e35825;}.cls-8{fill:#731c14;}.cls-9{fill:#86251c;}</style></defs><title>iper_logo_horizontal_rgb_black-r</title><path class="cls-1" d="M538.49,26.84a6.28,6.28,0,0,1,2.33,2.33,6.76,6.76,0,0,1,0,6.6A6.39,6.39,0,0,1,535.19,39a6.58,6.58,0,0,1-5.66-9.81,6.33,6.33,0,0,1,2.35-2.33,6.78,6.78,0,0,1,6.61,0ZM538,37.34a5.43,5.43,0,0,0,2-2,6,6,0,0,0,0-5.68,5.41,5.41,0,0,0-2-2,5.8,5.8,0,0,0-5.67,0,5.36,5.36,0,0,0-2,2,5.89,5.89,0,0,0,0,5.68,5.39,5.39,0,0,0,2,2,5.87,5.87,0,0,0,5.67,0Z"/><path class="cls-2" d="M99,32.77A51.43,51.43,0,0,0,51.51,1v22A29.35,29.35,0,0,1,80.79,52.26v.19A29.23,29.23,0,0,1,72.24,73l-1.51,1.51h0L51.51,93.76v10.1h0V125L86.44,90.18h0l1.4-1.4h0A51.43,51.43,0,0,0,102.9,52.45v0A51.3,51.3,0,0,0,99,32.77Z"/><path class="cls-3" d="M24.27,41.16a29.22,29.22,0,0,1,6.36-9.59l0,0c.62-.61,1.26-1.2,1.93-1.76a29.34,29.34,0,0,1,18.85-6.86h.07V1h-.06A51.44,51.44,0,0,0,0,52.41v0a51.44,51.44,0,0,0,51.45,51.41h.06V93.76h0V81.61h-.07a29.27,29.27,0,0,1-20.63-8.48h0c-.22-.21-.42-.43-.63-.65a29.3,29.3,0,0,1-8.08-20v-.19c0-.75,0-1.49.09-2.23A29.12,29.12,0,0,1,24.27,41.16Z"/><path class="cls-4" d="M71.21,4.9A51.26,51.26,0,0,0,51.51,1h-.06A51.33,51.33,0,0,0,15.08,16L30.63,31.57l0,0c.62-.61,1.26-1.2,1.93-1.76a29.34,29.34,0,0,1,18.85-6.86h.07a29.24,29.24,0,0,1,20.81,8.73L87.88,16.08A51.35,51.35,0,0,0,71.21,4.9Z"/><path class="cls-1" d="M134.05,70.13a4.38,4.38,0,0,1-1.25-3.35v-29a4.23,4.23,0,0,1,1.25-3.31,4.56,4.56,0,0,1,3.19-1.13,4.66,4.66,0,0,1,3.22,1.13,4.12,4.12,0,0,1,1.3,3.31v29a4.27,4.27,0,0,1-1.3,3.35,4.63,4.63,0,0,1-3.22,1.16A4.54,4.54,0,0,1,134.05,70.13Z"/><path class="cls-1" d="M179.5,35.56a15.69,15.69,0,0,1,5.52,6.8,24.63,24.63,0,0,1,2,10.12,23.81,23.81,0,0,1-2,10,15.41,15.41,0,0,1-5.48,6.62,14.25,14.25,0,0,1-8.1,2.33,13.37,13.37,0,0,1-6.66-1.65,11.28,11.28,0,0,1-4.52-4.59V80.55a4,4,0,0,1-1.21,3.08,4.59,4.59,0,0,1-3.23,1.13,4.52,4.52,0,0,1-3.26-1.2,4.18,4.18,0,0,1-1.25-3.16V37.74a4.41,4.41,0,0,1,1.18-3.24,4.28,4.28,0,0,1,3.19-1.2,4.16,4.16,0,0,1,4.44,4.44v1.88a11.29,11.29,0,0,1,4.55-4.78,13.42,13.42,0,0,1,6.77-1.69A14,14,0,0,1,179.5,35.56ZM175.67,61.1c1.58-2,2.36-4.9,2.36-8.62s-.78-6.77-2.36-8.87a8.56,8.56,0,0,0-13.22-.08q-2.32,3.09-2.33,8.8c0,3.77.78,6.67,2.33,8.73a8.65,8.65,0,0,0,13.22,0Z"/><path class="cls-1" d="M224.6,61.74a4.21,4.21,0,0,1,.75,2.63q0,2.34-2.65,3.91a23.09,23.09,0,0,1-5.51,2.3,22.07,22.07,0,0,1-5.88.86q-8.46,0-13.4-5.11t-4.94-14a22.25,22.25,0,0,1,2.15-10,16.07,16.07,0,0,1,6-6.77A16.46,16.46,0,0,1,210,33.15a15.33,15.33,0,0,1,8.24,2.18,14.52,14.52,0,0,1,5.45,6.17,21.32,21.32,0,0,1,1.93,9.4c0,2.16-.91,3.24-2.72,3.24H201.78q.43,5.19,2.79,7.64t6.88,2.44a12.51,12.51,0,0,0,4.05-.6,37,37,0,0,0,4-1.66,7.65,7.65,0,0,1,3.15-1.2A2.38,2.38,0,0,1,224.6,61.74ZM204.4,42.18a11.66,11.66,0,0,0-2.62,6.92H218q-.14-4.59-2.15-7a6.91,6.91,0,0,0-5.58-2.37A7.47,7.47,0,0,0,204.4,42.18Z"/><path class="cls-1" d="M256,34.13a3.79,3.79,0,0,1,1.07,2.93,4.24,4.24,0,0,1-.93,3,5.59,5.59,0,0,1-3.37,1.28l-2.15.22a8.58,8.58,0,0,0-6.2,3,10.21,10.21,0,0,0-2,6.4v15.8a4.3,4.3,0,0,1-1.29,3.35A4.65,4.65,0,0,1,238,71.29a4.54,4.54,0,0,1-3.19-1.16,4.35,4.35,0,0,1-1.25-3.35V37.66a4.1,4.1,0,0,1,1.25-3.23,4.45,4.45,0,0,1,3.12-1.13,4.19,4.19,0,0,1,3,1.09A4.12,4.12,0,0,1,242,37.51v3a11.08,11.08,0,0,1,4.05-5.12,12,12,0,0,1,6-2l1-.07A3.71,3.71,0,0,1,256,34.13Z"/><path class="cls-1" d="M269.27,69a15.48,15.48,0,0,1-5.66-6.62,23,23,0,0,1-2-9.86,23.12,23.12,0,0,1,2-10,15.92,15.92,0,0,1,5.73-6.73,15.15,15.15,0,0,1,8.49-2.41,18.91,18.91,0,0,1,5.3.75,14.27,14.27,0,0,1,4.59,2.26,8.18,8.18,0,0,1,1.83,1.77,3,3,0,0,1,.53,1.69,2,2,0,0,1-.43,1.35,1.32,1.32,0,0,1-1.07.53,4.71,4.71,0,0,1-2.29-1.28,19.34,19.34,0,0,0-3.73-2.26,11.11,11.11,0,0,0-4.51-.82,10.51,10.51,0,0,0-8.75,4c-2.1,2.69-3.15,6.38-3.15,11.1s1,8.29,3.12,10.87a10.56,10.56,0,0,0,8.7,3.88,11,11,0,0,0,4.55-.83,28.54,28.54,0,0,0,4-2.26c.43-.3.85-.58,1.25-.83a2,2,0,0,1,1-.37,1.41,1.41,0,0,1,1.15.52,2,2,0,0,1,.43,1.28,2.61,2.61,0,0,1-.5,1.58,9.68,9.68,0,0,1-1.94,1.73,14.46,14.46,0,0,1-4.69,2.37,18.17,18.17,0,0,1-5.48.87A15.44,15.44,0,0,1,269.27,69Z"/><path class="cls-1" d="M325.77,63.58a2,2,0,0,1,.47,1.32c0,1.1-.82,2.18-2.44,3.23a20.15,20.15,0,0,1-10.89,3.24q-7.95,0-12.54-5t-4.59-13.85a23,23,0,0,1,2.05-10,15.69,15.69,0,0,1,5.73-6.69,15.36,15.36,0,0,1,8.49-2.37A13.3,13.3,0,0,1,322.69,38q3.9,4.56,3.9,12.53a2.92,2.92,0,0,1-.57,2,2.37,2.37,0,0,1-1.86.64H300.3q.21,6.93,3.44,10.53t9.1,3.62a13.44,13.44,0,0,0,5.16-.87,35,35,0,0,0,4.44-2.29A4.93,4.93,0,0,1,324.66,63,1.41,1.41,0,0,1,325.77,63.58ZM304,40.52q-3,3.31-3.58,9.26h22.14c-.09-4-1.05-7.11-2.86-9.3a9.43,9.43,0,0,0-7.67-3.27A10.33,10.33,0,0,0,304,40.52Z"/><path class="cls-1" d="M360.26,35.82a15.45,15.45,0,0,1,5.44,6.69,24.45,24.45,0,0,1,1.94,10.05,23.65,23.65,0,0,1-1.94,9.89A15.28,15.28,0,0,1,360.26,69a14.33,14.33,0,0,1-8.1,2.33,13.55,13.55,0,0,1-7.31-1.92,11.92,11.92,0,0,1-4.66-5.61V82.43a2.45,2.45,0,0,1-.57,1.69,2,2,0,0,1-1.58.64,2.12,2.12,0,0,1-1.61-.64,2.38,2.38,0,0,1-.61-1.69V35.93a2.38,2.38,0,0,1,.61-1.69A2.12,2.12,0,0,1,338,33.6a2,2,0,0,1,1.58.64,2.45,2.45,0,0,1,.57,1.69v5a11.94,11.94,0,0,1,4.66-5.6,13.55,13.55,0,0,1,7.31-1.92A14.13,14.13,0,0,1,360.26,35.82Zm-.18,27.61q3-3.87,3-10.87,0-7.16-3-11.14a10.09,10.09,0,0,0-8.49-4,10,10,0,0,0-8.42,3.91q-3,3.91-3,11.06t2.94,11a9.92,9.92,0,0,0,8.39,3.88A10.28,10.28,0,0,0,360.08,63.43Z"/><path class="cls-1" d="M394.72,69.34a1.75,1.75,0,0,1-.64,1.43,3,3,0,0,1-2.08.45l-2-.15c-3.63-.25-6.31-1.42-8.06-3.5s-2.61-5.25-2.61-9.52V38h-5.45a1.85,1.85,0,0,1-1.36-.49,1.79,1.79,0,0,1-.5-1.32,1.89,1.89,0,0,1,.5-1.35,1.79,1.79,0,0,1,1.36-.53h5.45V25a2.42,2.42,0,0,1,.57-1.73,2.08,2.08,0,0,1,1.58-.6,2.2,2.2,0,0,1,1.61.6,2.31,2.31,0,0,1,.61,1.73v9.33h8.67a1.88,1.88,0,0,1,1.43.53,1.85,1.85,0,0,1,.5,1.35,1.75,1.75,0,0,1-.5,1.32,1.94,1.94,0,0,1-1.43.49h-8.67V58.28q0,4.66,1.72,6.66a7.58,7.58,0,0,0,5.37,2.29l1.94.15C394.05,67.53,394.72,68.18,394.72,69.34Z"/><path class="cls-1" d="M405.22,28.34a3.14,3.14,0,0,1-.89-2.33,3.28,3.28,0,0,1,.89-2.41,3.47,3.47,0,0,1,4.66,0,3.28,3.28,0,0,1,.89,2.41,3.28,3.28,0,0,1-5.55,2.33Zm.72,42.28a2.31,2.31,0,0,1-.61-1.73v-33a2.31,2.31,0,0,1,.61-1.73,2.18,2.18,0,0,1,1.61-.6,2.1,2.1,0,0,1,1.58.6,2.42,2.42,0,0,1,.57,1.73v33a2.42,2.42,0,0,1-.57,1.73,2.1,2.1,0,0,1-1.58.6A2.18,2.18,0,0,1,405.94,70.62Z"/><path class="cls-1" d="M426.49,69a15.48,15.48,0,0,1-5.63-6.62,23.38,23.38,0,0,1-2-10,23.38,23.38,0,0,1,2-10,15.42,15.42,0,0,1,5.63-6.62,15.35,15.35,0,0,1,22.43,6.62,23.84,23.84,0,0,1,2,10,23.84,23.84,0,0,1-2,10A15.73,15.73,0,0,1,426.49,69Zm16.87-5.57q3-3.84,3-11.06t-3-11a11,11,0,0,0-16.88,0q-3,3.95-3,11t2.94,11.06a10,10,0,0,0,8.46,3.84A10.19,10.19,0,0,0,443.36,63.47Z"/><path class="cls-1" d="M489,47.59v21.3a2.46,2.46,0,0,1-.58,1.69,2,2,0,0,1-1.57.64,2.17,2.17,0,0,1-1.62-.64,2.38,2.38,0,0,1-.61-1.69v-21q0-5.41-2.07-7.9t-6.6-2.48a10.85,10.85,0,0,0-8.27,3.31,12.43,12.43,0,0,0-3.12,8.88V68.89a2.45,2.45,0,0,1-.57,1.69,2,2,0,0,1-1.58.64,2.13,2.13,0,0,1-1.61-.64,2.34,2.34,0,0,1-.61-1.69v-33a2.34,2.34,0,0,1,.61-1.69,2.09,2.09,0,0,1,1.61-.64,2,2,0,0,1,1.51.6,2.31,2.31,0,0,1,.57,1.66V40.6a12,12,0,0,1,4.76-5.31,13.89,13.89,0,0,1,7.21-1.84Q489,33.45,489,47.59Z"/><path class="cls-1" d="M505.87,70.79a18.78,18.78,0,0,1-5.24-2.1,9.08,9.08,0,0,1-2-1.59,2.65,2.65,0,0,1-.62-1.59,1.91,1.91,0,0,1,.4-1.3,1.41,1.41,0,0,1,1.08-.58,4.89,4.89,0,0,1,2.28,1,22.5,22.5,0,0,0,4.38,2.1,14.41,14.41,0,0,0,5.52.62,11.6,11.6,0,0,0,6.5-2,5.28,5.28,0,0,0,2.12-4.75,4.89,4.89,0,0,0-1-2.92,6.82,6.82,0,0,0-3-1.88,34.25,34.25,0,0,0-5.82-1.39q-6.45-1.17-9.25-3.4a8,8,0,0,1-3-6.2,9.64,9.64,0,0,1,3.17-8,14.12,14.12,0,0,1,9.15-3.45,18.71,18.71,0,0,1,5.37.47,13.27,13.27,0,0,1,4.51,2c1.74,1.11,2.63,2.25,2.69,3.4a2,2,0,0,1-.39,1.34,1.4,1.4,0,0,1-1.08.62,4.5,4.5,0,0,1-2.28-1.09,22,22,0,0,0-4-2.09,11.77,11.77,0,0,0-4.88-.61,9.22,9.22,0,0,0-5.84,2.08,5.75,5.75,0,0,0-2,4.88,5,5,0,0,0,.9,2.82,6.19,6.19,0,0,0,2.68,1.86,28.45,28.45,0,0,0,5.35,1.41,36.39,36.39,0,0,1,7.72,2.16,9.19,9.19,0,0,1,4,3,9.11,9.11,0,0,1,1.39,4.75A8.86,8.86,0,0,1,521.44,68q-3.54,3-9.62,3.33A20.55,20.55,0,0,1,505.87,70.79Z"/><path class="cls-1" d="M133,27.9a4.85,4.85,0,0,1-1.43-3.65A4.72,4.72,0,0,1,133,20.63a6.14,6.14,0,0,1,7.71,0,4.68,4.68,0,0,1,1.47,3.62,4.89,4.89,0,0,1-1.43,3.65,6.1,6.1,0,0,1-7.75,0Z"/><polygon class="cls-5" points="87.75 88.68 72.14 73.08 51.51 93.76 51.51 103.86 51.52 103.86 51.51 125.04 87.84 88.78 87.84 88.78 87.75 88.68"/><path class="cls-6" d="M99,32.77A51.46,51.46,0,0,0,87.88,16.08L72.32,31.64a29.33,29.33,0,0,1,8.47,20.62v.19H102.9v0A51.3,51.3,0,0,0,99,32.77Z"/><path class="cls-2" d="M71.21,4.9A51.26,51.26,0,0,0,51.51,1v22a29.24,29.24,0,0,1,20.81,8.73L87.88,16.08A51.35,51.35,0,0,0,71.21,4.9Z"/><path class="cls-3" d="M51.51,93.76V81.61h-.07a29.27,29.27,0,0,1-20.63-8.48L15.12,88.84a51.42,51.42,0,0,0,36.33,15h.06V93.76Z"/><path class="cls-7" d="M80.79,52.45A29.23,29.23,0,0,1,72.24,73l-.1.11,15.7,15.7h0A51.43,51.43,0,0,0,102.9,52.45Z"/><path class="cls-8" d="M30.8,73.13c-.22-.21-.42-.43-.63-.65a29.3,29.3,0,0,1-8.08-20H0A51.36,51.36,0,0,0,15.12,88.84l15.69-15.7Z"/><path class="cls-9" d="M15.08,16A51.41,51.41,0,0,0,0,52.41v0H22.09v-.19c0-.75,0-1.49.09-2.23a29.27,29.27,0,0,1,8.45-18.46Z"/><path class="cls-4" d="M51.45,1A51.33,51.33,0,0,0,15.08,16L30.63,31.57l0,0c.62-.61,1.26-1.2,1.93-1.76a29.34,29.34,0,0,1,18.85-6.86h.07V1Z"/><path class="cls-1" d="M537.59,34.12a2.89,2.89,0,0,0-.52-.56,1.49,1.49,0,0,0-.57-.26,2.37,2.37,0,0,0,1.41-.75,2.18,2.18,0,0,0,.5-1.47,2.14,2.14,0,0,0-.72-1.72,3.05,3.05,0,0,0-2-.61h-2.56a.78.78,0,0,0-.58.21.8.8,0,0,0-.21.59V35.2a.81.81,0,0,0,.24.62.88.88,0,0,0,.6.21.84.84,0,0,0,.59-.21.85.85,0,0,0,.23-.62V33.44h.71a1,1,0,0,1,.53.13,1.36,1.36,0,0,1,.39.4l1.09,1.67a.9.9,0,0,0,.75.39.87.87,0,0,0,.58-.2.58.58,0,0,0,.25-.49.77.77,0,0,0-.18-.45Zm-2.11-1.93H534V30h1.51a1.68,1.68,0,0,1,1,.25,1,1,0,0,1,.32.83,1,1,0,0,1-.32.82A1.61,1.61,0,0,1,535.48,32.19Z"/></svg>